<svg width="36" height="37" viewBox="0 0 36 37" fill="none" xmlns="http://www.w3.org/2000/svg">
<path d="M17.1656 3.2522C8.88265 3.2522 2.16714 9.9677 2.16714 18.2507C2.16714 25.7357 7.65114 31.9397 14.8226 33.0692V22.5872H11.0126V18.2507H14.8226V14.9462C14.8226 11.1842 17.0621 9.1097 20.4866 9.1097C22.1276 9.1097 23.8466 9.4022 23.8466 9.4022V13.0907H21.9506C20.0906 13.0907 19.5086 14.2487 19.5086 15.4352V18.2477H23.6651L23.0006 22.5842H19.5086V33.0662C26.6801 31.9427 32.1641 25.7372 32.1641 18.2507C32.1641 9.9677 25.4486 3.2522 17.1656 3.2522V3.2522Z" fill="#0168B3"/>
</svg>
