<svg width="227" height="530" viewBox="0 0 227 530" fill="none" xmlns="http://www.w3.org/2000/svg">
<rect x="41.8433" y="0.505249" width="141.529" height="141.529" rx="20" fill="#0168B3"/>
<rect x="60.5865" y="19.2485" width="104.043" height="104.043" rx="20" fill="#F8F8F8"/>
<path d="M90.8421 82.093C88.7021 82.093 86.7621 81.633 85.0221 80.713C83.3021 79.773 81.9421 78.483 80.9421 76.843C79.9621 75.183 79.4721 73.313 79.4721 71.233C79.4721 69.153 79.9621 67.293 80.9421 65.653C81.9421 63.993 83.3021 62.703 85.0221 61.783C86.7621 60.843 88.7121 60.373 90.8721 60.373C92.6921 60.373 94.3321 60.693 95.7921 61.333C97.2721 61.973 98.5121 62.893 99.5121 64.093L96.3921 66.973C94.9721 65.333 93.2121 64.513 91.1121 64.513C89.8121 64.513 88.6521 64.803 87.6321 65.383C86.6121 65.943 85.8121 66.733 85.2321 67.753C84.6721 68.773 84.3921 69.933 84.3921 71.233C84.3921 72.533 84.6721 73.693 85.2321 74.713C85.8121 75.733 86.6121 76.533 87.6321 77.113C88.6521 77.673 89.8121 77.953 91.1121 77.953C93.2121 77.953 94.9721 77.123 96.3921 75.463L99.5121 78.343C98.5121 79.563 97.2721 80.493 95.7921 81.133C94.3121 81.773 92.6621 82.093 90.8421 82.093ZM111.884 60.733C113.744 60.733 115.354 61.043 116.714 61.663C118.094 62.283 119.154 63.163 119.894 64.303C120.634 65.443 121.004 66.793 121.004 68.353C121.004 69.893 120.634 71.243 119.894 72.403C119.154 73.543 118.094 74.423 116.714 75.043C115.354 75.643 113.744 75.943 111.884 75.943H107.654V81.733H102.794V60.733H111.884ZM111.614 71.983C113.074 71.983 114.184 71.673 114.944 71.053C115.704 70.413 116.084 69.513 116.084 68.353C116.084 67.173 115.704 66.273 114.944 65.653C114.184 65.013 113.074 64.693 111.614 64.693H107.654V71.983H111.614ZM133.716 82.093C130.716 82.093 128.376 81.263 126.696 79.603C125.036 77.943 124.206 75.573 124.206 72.493V60.733H129.066V72.313C129.066 76.073 130.626 77.953 133.746 77.953C135.266 77.953 136.426 77.503 137.226 76.603C138.026 75.683 138.426 74.253 138.426 72.313V60.733H143.226V72.493C143.226 75.573 142.386 77.943 140.706 79.603C139.046 81.263 136.716 82.093 133.716 82.093Z" fill="#0168B3"/>
<rect y="227.72" width="226.367" height="99.0999" rx="20" fill="#0168B3"/>
<path d="M21.6415 312.993C21.6415 310.484 23.675 308.451 26.1836 308.451C28.6921 308.451 30.7256 310.484 30.7256 312.993V325.098H21.6415V312.993Z" fill="#F8F8F8"/>
<path d="M103.524 312.993C103.524 310.484 105.557 308.451 108.066 308.451C110.574 308.451 112.608 310.484 112.608 312.993V325.098H103.524V312.993Z" fill="#F8F8F8"/>
<path d="M62.5825 312.993C62.5825 310.484 64.6161 308.451 67.1246 308.451C69.6331 308.451 71.6667 310.484 71.6667 312.993V325.098H62.5825V312.993Z" fill="#F8F8F8"/>
<path d="M144.465 312.993C144.465 310.484 146.498 308.451 149.007 308.451C151.515 308.451 153.549 310.484 153.549 312.993V325.098H144.465V312.993Z" fill="#F8F8F8"/>
<path d="M42.1121 312.993C42.1121 310.484 44.1456 308.451 46.6541 308.451C49.1627 308.451 51.1962 310.484 51.1962 312.993V325.098H42.1121V312.993Z" fill="#F8F8F8"/>
<path d="M123.994 312.993C123.994 310.484 126.028 308.451 128.536 308.451C131.045 308.451 133.079 310.484 133.079 312.993V325.098H123.994V312.993Z" fill="#F8F8F8"/>
<path d="M83.0532 312.993C83.0532 310.484 85.0868 308.451 87.5953 308.451C90.1038 308.451 92.1374 310.484 92.1374 312.993V325.098H83.0532V312.993Z" fill="#F8F8F8"/>
<path d="M164.936 312.993C164.936 310.484 166.969 308.451 169.478 308.451C171.986 308.451 174.02 310.484 174.02 312.993V325.098H164.936V312.993Z" fill="#F8F8F8"/>
<path d="M185.406 312.993C185.406 310.484 187.44 308.451 189.948 308.451C192.457 308.451 194.49 310.484 194.49 312.993V325.098H185.406V312.993Z" fill="#F8F8F8"/>
<path d="M31.8768 312.993C31.8768 310.484 33.9104 308.451 36.4189 308.451C38.9274 308.451 40.961 310.484 40.961 312.993V325.098H31.8768V312.993Z" fill="#F8F8F8"/>
<path d="M113.759 312.993C113.759 310.484 115.793 308.451 118.301 308.451C120.81 308.451 122.843 310.484 122.843 312.993V325.098H113.759V312.993Z" fill="#F8F8F8"/>
<path d="M72.8179 312.993C72.8179 310.484 74.8514 308.451 77.3599 308.451C79.8685 308.451 81.902 310.484 81.902 312.993V325.098H72.8179V312.993Z" fill="#F8F8F8"/>
<path d="M154.7 312.993C154.7 310.484 156.734 308.451 159.242 308.451C161.751 308.451 163.784 310.484 163.784 312.993V325.098H154.7V312.993Z" fill="#F8F8F8"/>
<path d="M52.3474 312.993C52.3474 310.484 54.381 308.451 56.8895 308.451C59.398 308.451 61.4316 310.484 61.4316 312.993V325.098H52.3474V312.993Z" fill="#F8F8F8"/>
<path d="M134.23 312.993C134.23 310.484 136.263 308.451 138.772 308.451C141.28 308.451 143.314 310.484 143.314 312.993V325.098H134.23V312.993Z" fill="#F8F8F8"/>
<path d="M93.2886 312.993C93.2886 310.484 95.3221 308.451 97.8306 308.451C100.339 308.451 102.373 310.484 102.373 312.993V325.098H93.2886V312.993Z" fill="#F8F8F8"/>
<path d="M175.171 312.993C175.171 310.484 177.204 308.451 179.713 308.451C182.221 308.451 184.255 310.484 184.255 312.993V325.098H175.171V312.993Z" fill="#F8F8F8"/>
<path d="M195.641 312.993C195.641 310.484 197.675 308.451 200.183 308.451C202.692 308.451 204.726 310.484 204.726 312.993V325.098H195.641V312.993Z" fill="#F8F8F8"/>
<rect x="20.4905" y="250.054" width="40.941" height="40.941" rx="10" fill="#F8F8F8"/>
<rect x="164.936" y="250.054" width="40.941" height="40.941" rx="10" fill="#F8F8F8"/>
<rect x="92.1375" y="250.054" width="40.941" height="40.941" rx="10" fill="#F8F8F8"/>
<path d="M45.5576 281.728L41.5076 275.878H41.2676H37.0376V281.728H32.1776V260.728H41.2676C43.1276 260.728 44.7376 261.038 46.0976 261.658C47.4776 262.278 48.5376 263.158 49.2776 264.298C50.0176 265.438 50.3876 266.788 50.3876 268.348C50.3876 269.908 50.0076 271.258 49.2476 272.398C48.5076 273.518 47.4476 274.378 46.0676 274.978L50.7776 281.728H45.5576ZM45.4676 268.348C45.4676 267.168 45.0876 266.268 44.3276 265.648C43.5676 265.008 42.4576 264.688 40.9976 264.688H37.0376V272.008H40.9976C42.4576 272.008 43.5676 271.688 44.3276 271.048C45.0876 270.408 45.4676 269.508 45.4676 268.348Z" fill="#0168B3"/>
<path d="M117.2 277.228H107.45L105.59 281.728H100.61L109.97 260.728H114.77L124.16 281.728H119.06L117.2 277.228ZM115.67 273.538L112.34 265.498L109.01 273.538H115.67Z" fill="#0168B3"/>
<path d="M192.923 281.728L192.893 269.128L186.713 279.508H184.523L178.373 269.398V281.728H173.813V260.728H177.833L185.693 273.778L193.433 260.728H197.423L197.483 281.728H192.923Z" fill="#0168B3"/>
<rect x="105.481" y="157.977" width="14.253" height="53.7993" fill="#0168B3"/>
<rect x="85.7084" y="192.004" width="14.253" height="53.7993" transform="rotate(-90 85.7084 192.004)" fill="#0168B3"/>
<rect x="92.9946" y="345.051" width="14.253" height="53.7993" fill="#0168B3"/>
<rect x="117.968" y="345.051" width="14.253" height="53.7993" fill="#0168B3"/>
<path fill-rule="evenodd" clip-rule="evenodd" d="M110.338 428.85C91.428 430.027 81.5463 440.736 80.6835 460.101H99.7593C99.9982 453.393 103.742 448.378 110.713 447.639C117.556 446.912 124.048 448.542 126.014 453.221C128.138 458.274 123.371 464.147 121.104 466.612C116.908 471.183 110.093 474.518 106.56 479.45C103.097 484.282 102.481 490.641 102.215 498.423H119.027C119.263 493.447 119.594 488.681 121.858 485.589C125.54 480.564 131.039 478.21 135.647 474.242C140.05 470.449 144.681 465.878 145.467 458.802C147.828 437.627 130.543 427.589 110.338 428.85Z" fill="#0168B3"/>
<path d="M110.77 526.245C116.633 526.245 121.385 521.565 121.385 515.791C121.385 510.018 116.633 505.338 110.77 505.338C104.908 505.338 100.156 510.018 100.156 515.791C100.156 521.565 104.908 526.245 110.77 526.245Z" fill="#0168B3"/>
</svg>
