<svg width="37" height="36" viewBox="0 0 37 36" fill="none" xmlns="http://www.w3.org/2000/svg">
<path d="M33.5045 17.7539L19.0236 3.28354C18.9194 3.17907 18.7955 3.09619 18.6592 3.03964C18.5229 2.98309 18.3767 2.95398 18.2291 2.95398C18.0815 2.95398 17.9354 2.98309 17.799 3.03964C17.6627 3.09619 17.5388 3.17907 17.4346 3.28354L2.95372 17.7539C2.53185 18.1757 2.29279 18.7488 2.29279 19.3464C2.29279 20.5874 3.30177 21.5964 4.54279 21.5964H6.06857V31.9218C6.06857 32.5441 6.5713 33.0468 7.19357 33.0468H15.9791V25.1718H19.9166V33.0468H29.2647C29.8869 33.0468 30.3897 32.5441 30.3897 31.9218V21.5964H31.9154C32.5131 21.5964 33.0861 21.3609 33.508 20.9355C34.3834 20.0566 34.3834 18.6328 33.5045 17.7539V17.7539Z" fill="#0168B3"/>
</svg>
