<svg width="36" height="37" viewBox="0 0 36 37" fill="none" xmlns="http://www.w3.org/2000/svg">
<path d="M32.625 6.25769H3.375C2.75273 6.25769 2.25 6.76042 2.25 7.38269V29.8827C2.25 30.505 2.75273 31.0077 3.375 31.0077H32.625C33.2473 31.0077 33.75 30.505 33.75 29.8827V7.38269C33.75 6.76042 33.2473 6.25769 32.625 6.25769ZM29.7844 10.0862L18.6926 18.7171C18.4184 18.9315 18.0352 18.9315 17.7609 18.7171L6.66563 10.0862C6.6238 10.0539 6.59312 10.0094 6.57789 9.95878C6.56266 9.90819 6.56364 9.8541 6.5807 9.8041C6.59776 9.7541 6.63003 9.71068 6.673 9.67994C6.71597 9.64921 6.76748 9.63268 6.82031 9.63269H29.6297C29.6825 9.63268 29.734 9.64921 29.777 9.67994C29.82 9.71068 29.8522 9.7541 29.8693 9.8041C29.8864 9.8541 29.8873 9.90819 29.8721 9.95878C29.8569 10.0094 29.8262 10.0539 29.7844 10.0862Z" fill="#0168B3"/>
</svg>
