<svg width="37" height="37" viewBox="0 0 37 37" fill="none" xmlns="http://www.w3.org/2000/svg">
<path d="M31.0991 26.3427L25.0016 20.7987C24.7134 20.5367 24.3347 20.397 23.9454 20.409C23.556 20.4211 23.1866 20.5839 22.9151 20.8632L19.3256 24.5547C18.4616 24.3897 16.7246 23.8482 14.9366 22.0647C13.1486 20.2752 12.6071 18.5337 12.4466 17.6757L16.1351 14.0847C16.4148 13.8134 16.5779 13.4439 16.5899 13.0545C16.6019 12.6651 16.462 12.2862 16.1996 11.9982L10.6571 5.90218C10.3947 5.61322 10.03 5.43794 9.64038 5.41357C9.25079 5.38921 8.86704 5.51767 8.57065 5.77168L5.31565 8.56318C5.05631 8.82346 4.90153 9.16986 4.88065 9.53668C4.85815 9.91168 4.42915 18.7947 11.3171 25.6857C17.3261 31.6932 24.8531 32.1327 26.9261 32.1327C27.2291 32.1327 27.4151 32.1237 27.4646 32.1207C27.8314 32.1002 28.1776 31.9447 28.4366 31.6842L31.2267 28.4277C31.4817 28.1322 31.6111 27.7488 31.5873 27.3592C31.5634 26.9697 31.3883 26.6049 31.0991 26.3427Z" fill="#0168B3"/>
</svg>
